<svg xmlns="http://www.w3.org/2000/svg" viewBox="0 0 800 240" width="100%" height="240" fill="none">
  <defs>
    <!-- Fonts -->
    <style>
      @import url('https://fonts.googleapis.com/css2?family=Outfit:wght@400;600;700;800&amp;display=swap');
      
      .proj-title {
        font-family: 'Outfit', -apple-system, sans-serif;
        font-weight: 700;
        font-size: 18px;
        fill: #ffffff;
      }
      
      .proj-desc {
        font-family: 'Outfit', -apple-system, sans-serif;
        font-weight: 400;
        font-size: 12.5px;
        fill: #a1a1aa;
        line-height: 1.5;
      }

      .badge-text {
        font-family: 'Outfit', -apple-system, sans-serif;
        font-weight: 600;
        font-size: 10px;
        fill: #ffffff;
        letter-spacing: 0.05em;
      }

      .stat-text {
        font-family: 'Outfit', -apple-system, sans-serif;
        font-weight: 500;
        font-size: 12px;
        fill: #71717a;
      }

      @keyframes pulse-border {
        0%, 100% { stroke-opacity: 0.15; }
        50% { stroke-opacity: 0.35; }
      }

      .card-rect {
        stroke: url(#borderGrad);
        stroke-width: 1.2;
      }

      .card-1 {
        animation: pulse-border 4s ease-in-out infinite;
      }

      .card-2 {
        animation: pulse-border 4s ease-in-out infinite;
        animation-delay: 2s;
      }
    </style>

    <linearGradient id="borderGrad" x1="0%" y1="0%" x2="100%" y2="100%">
      <stop offset="0%" stop-color="#ffffff" stop-opacity="0.2" />
      <stop offset="50%" stop-color="#ffffff" stop-opacity="0.02" />
      <stop offset="100%" stop-color="#ffffff" stop-opacity="0.12" />
    </linearGradient>

    <!-- Noise filter -->
    <filter id="noiseFilter">
      <feTurbulence type="fractalNoise" baseFrequency="0.8" numOctaves="3" stitchTiles="stitch" />
      <feColorMatrix type="matrix" values="0 0 0 0 0   0 0 0 0 0   0 0 0 0 0  0 0 0 0.04 0" />
    </filter>
  </defs>

  <rect width="100%" height="100%" fill="none" />

  <!-- Project 1 Card -->
  <g transform="translate(10, 10)">
    <rect class="card-rect card-1" width="375" height="220" rx="18" fill="#09090b" fill-opacity="0.8" />
    <rect width="375" height="220" rx="18" filter="url(#noiseFilter)" pointer-events="none" />
    
    <!-- Header: Icon & Status -->
    <g transform="translate(25, 25)">
      <!-- Project Icon Placeholder (Glass Circle) -->
      <circle cx="20" cy="20" r="20" fill="#ffffff" fill-opacity="0.04" stroke="#ffffff" stroke-opacity="0.1" />
      <!-- Minimalist Folder Icon -->
      <path d="M14,15 L17,12 L26,12 L26,28 L14,28 Z" stroke="#ffffff" stroke-width="1.5" stroke-linecap="round" stroke-linejoin="round" fill="none" />
      
      <!-- Badges -->
      <g transform="translate(240, 8)">
        <rect width="65" height="22" rx="11" fill="#10b981" fill-opacity="0.1" stroke="#10b981" stroke-opacity="0.2" />
        <circle cx="12" cy="11" r="3" fill="#10b981" />
        <text x="22" y="14" class="badge-text" fill="#10b981">ACTIVE</text>
      </g>
    </g>

    <!-- Project Info -->
    <g transform="translate(25, 80)">
      <text x="0" y="10" class="proj-title">SysGuard Monitor</text>
      <text x="0" y="32" class="proj-desc">
        <tspan x="0" dy="0">High-performance lightweight agent tracking</tspan>
        <tspan x="0" dy="18">virtualized CPU states, disk usage, and network</tspan>
        <tspan x="0" dy="18">interfaces. Built for headless environments.</tspan>
      </text>
    </g>

    <!-- Footer: Languages & Stars -->
    <g transform="translate(25, 175)">
      <circle cx="6" cy="8" r="4.5" fill="#b07219" />
      <text x="18" y="12" class="stat-text">Java</text>
      
      <!-- Stars -->
      <g transform="translate(80, 0)">
        <!-- Star Icon -->
        <path d="M6,1.5 L7.8,5.1 L11.8,5.7 L8.9,8.5 L9.6,12.5 L6,10.6 L2.4,12.5 L3.1,8.5 L0.2,5.7 L4.2,5.1 Z" stroke="#71717a" stroke-width="1.2" fill="none" />
        <text x="16" y="12" class="stat-text">142</text>
      </g>
    </g>
  </g>

  <!-- Project 2 Card -->
  <g transform="translate(415, 10)">
    <rect class="card-rect card-2" width="375" height="220" rx="18" fill="#09090b" fill-opacity="0.8" />
    <rect width="375" height="220" rx="18" filter="url(#noiseFilter)" pointer-events="none" />
    
    <!-- Header: Icon & Status -->
    <g transform="translate(25, 25)">
      <!-- Project Icon Placeholder (Glass Circle) -->
      <circle cx="20" cy="20" r="20" fill="#ffffff" fill-opacity="0.04" stroke="#ffffff" stroke-opacity="0.1" />
      <!-- Minimalist Code Brackets Icon -->
      <path d="M15,16 L10,20 L15,24 M25,16 L30,20 L25,24" stroke="#ffffff" stroke-width="1.5" stroke-linecap="round" stroke-linejoin="round" fill="none" />
      
      <!-- Badges -->
      <g transform="translate(210, 8)">
        <rect width="95" height="22" rx="11" fill="#3b82f6" fill-opacity="0.1" stroke="#3b82f6" stroke-opacity="0.2" />
        <circle cx="12" cy="11" r="3" fill="#3b82f6" />
        <text x="22" y="14" class="badge-text" fill="#3b82f6">MAINTAINED</text>
      </g>
    </g>

    <!-- Project Info -->
    <g transform="translate(25, 80)">
      <text x="0" y="10" class="proj-title">AutoFlow Automations</text>
      <text x="0" y="32" class="proj-desc">
        <tspan x="0" dy="0">Task automation suite orchestrating Ansible</tspan>
        <tspan x="0" dy="18">playbooks, VM cloning events, and firewall</tspan>
        <tspan x="0" dy="18">re-configurations over encrypted SSH.</tspan>
      </text>
    </g>

    <!-- Footer: Languages & Stars -->
    <g transform="translate(25, 175)">
      <circle cx="6" cy="8" r="4.5" fill="#3572A5" />
      <text x="18" y="12" class="stat-text">Python</text>
      
      <!-- Stars -->
      <g transform="translate(90, 0)">
        <!-- Star Icon -->
        <path d="M6,1.5 L7.8,5.1 L11.8,5.7 L8.9,8.5 L9.6,12.5 L6,10.6 L2.4,12.5 L3.1,8.5 L0.2,5.7 L4.2,5.1 Z" stroke="#71717a" stroke-width="1.2" fill="none" />
        <text x="16" y="12" class="stat-text">98</text>
      </g>
    </g>
  </g>
</svg>
